<?xml version="1.0" encoding="iso-8859-1"?>
<!-- Generator: Adobe Illustrator 19.0.0, SVG Export Plug-In . SVG Version: 6.00 Build 0)  -->
<svg version="1.1" id="Layer_1" xmlns="http://www.w3.org/2000/svg" xmlns:xlink="http://www.w3.org/1999/xlink" x="0px" y="0px"
	 viewBox="0 0 512 512" style="enable-background:new 0 0 512 512;" xml:space="preserve">
<g>
	<polygon style="fill:#F7B239;" points="503.335,96.955 503.335,399.763 474.441,370.869 474.441,125.849 	"/>
	<polygon style="fill:#F7B239;" points="503.335,96.955 474.441,125.849 37.566,125.849 8.672,96.955 	"/>
	<polygon style="fill:#F7B239;" points="503.335,399.763 420.491,399.763 420.491,370.869 474.441,370.869 	"/>
</g>
<path style="fill:#E6E6E6;" d="M474.441,125.849v245.02h-53.951v-15.464h-2.785c0.844-0.162,1.664-0.428,2.439-0.821
	c4.796-2.45,6.391-9.697,10.413-13.719c4.022-4.022,11.269-5.617,13.719-10.425c2.543-4.981-0.474-11.812,0.37-17.221
	c0.867-5.455,5.825-11.037,4.97-16.493c-0.855-5.409-7.27-9.177-9.812-14.158c-2.45-4.808-1.676-12.239-5.698-16.261
	c-4.01-4.022-11.442-3.236-16.25-5.686c-4.981-2.543-8.749-8.957-14.158-9.812c-5.467-0.855-11.037,4.103-16.493,4.958
	c-5.409,0.855-12.239-2.161-17.221,0.37c-4.808,2.45-6.403,9.708-10.425,13.73c-4.022,4.01-11.269,5.605-13.719,10.413
	c-2.543,4.981,0.474,11.823-0.37,17.221c-0.867,5.467-5.825,11.037-4.97,16.504c0.855,5.409,7.27,9.177,9.812,14.158
	c2.45,4.808,1.676,12.228,5.698,16.25c3.329,3.34,9.026,3.375,13.615,4.704v21.751H37.566v-245.02L474.441,125.849L474.441,125.849z
	"/>
<path style="fill:#F7B239;" d="M369.626,349.118c-4.588-1.329-10.286-1.364-13.615-4.704c-4.022-4.022-3.248-11.442-5.698-16.25
	c-2.543-4.981-8.957-8.749-9.812-14.158c-0.855-5.467,4.103-11.037,4.97-16.504c0.844-5.397-2.173-12.239,0.37-17.221
	c2.45-4.808,9.697-6.403,13.719-10.413c4.022-4.022,5.617-11.28,10.425-13.73c4.981-2.531,11.812,0.485,17.221-0.37
	c5.455-0.855,11.026-5.813,16.493-4.958c5.409,0.855,9.177,7.27,14.158,9.812c4.808,2.45,12.239,1.664,16.25,5.686
	c4.022,4.022,3.248,11.454,5.698,16.262c2.543,4.981,8.957,8.749,9.812,14.158c0.855,5.455-4.103,11.037-4.97,16.493
	c-0.844,5.409,2.173,12.239-0.37,17.221c-2.45,4.808-9.697,6.403-13.719,10.425s-5.617,11.269-10.413,13.719
	c-0.774,0.393-1.595,0.659-2.439,0.821c-4.635,0.878-10.228-1.167-14.794-0.451c-5.455,0.867-11.026,5.825-16.493,4.958
	c-5.409-0.844-9.177-7.258-14.158-9.801C371.452,349.696,370.562,349.372,369.626,349.118z M412.031,322.328
	c9.373-9.362,9.373-24.56,0-33.933s-24.571-9.373-33.945,0s-9.373,24.571,0,33.933C387.459,331.701,402.657,331.701,412.031,322.328
	z"/>
<g>
	<path style="fill:#F95428;" d="M399.479,399.763l-4.427-3.213l-4.415,3.213h-0.012l-21,15.279v-15.279v-28.894v-21.751
		c0.936,0.254,1.826,0.578,2.635,0.994c4.981,2.543,8.749,8.957,14.158,9.801c5.467,0.867,11.037-4.091,16.493-4.958
		c4.565-0.717,10.159,1.329,14.794,0.451h2.785v15.464v28.894v15.268L399.479,399.763z"/>
	<path style="fill:#F95428;" d="M412.031,288.395c9.373,9.373,9.373,24.571,0,33.933c-9.373,9.373-24.571,9.373-33.945,0
		c-9.373-9.362-9.373-24.56,0-33.933C387.459,279.022,402.657,279.022,412.031,288.395z"/>
</g>
<g>
	<polygon style="fill:#F7B239;" points="369.626,370.869 369.626,399.763 8.672,399.763 37.566,370.869 	"/>
	<polygon style="fill:#F7B239;" points="37.566,125.849 37.566,370.869 8.672,399.763 8.672,96.955 	"/>
</g>
<path style="fill:#FFFFFF;" d="M442.175,251.323c-4.788,0-8.668-3.881-8.668-8.668v-84.943c0-4.787,3.88-8.668,8.668-8.668
	s8.668,3.881,8.668,8.668v84.943C450.843,247.442,446.963,251.323,442.175,251.323z"/>
<g>
	<path style="fill:#333333;" d="M503.332,88.293H8.668C3.881,88.293,0,92.174,0,96.961v302.808c0,4.787,3.881,8.668,8.668,8.668
		h352.294v6.602c0,3.26,1.83,6.245,4.735,7.725c1.241,0.632,2.589,0.943,3.932,0.943c1.801,0,3.59-0.559,5.1-1.659l20.327-14.787
		l20.333,14.781c2.637,1.916,6.128,2.191,9.031,0.712c2.906-1.479,4.734-4.464,4.734-7.724v-6.594h74.176
		c4.788,0,8.668-3.881,8.668-8.668V96.961C512,92.174,508.12,88.293,503.332,88.293z M377.243,345.875
		c-1.782-2.279-3.801-4.862-6.594-6.894c-2.822-2.054-5.926-3.192-8.662-4.197c-1.486-0.546-3.949-1.449-4.593-2.051
		c-0.362-0.799-0.463-3.388-0.526-4.949c-0.114-2.923-0.245-6.235-1.328-9.575c-1.054-3.245-2.869-5.935-4.47-8.309
		c-0.94-1.392-2.511-3.72-2.572-4.522c0.061-0.828,1.632-3.155,2.572-4.547c1.602-2.374,3.416-5.063,4.469-8.309
		c1.084-3.34,1.216-6.653,1.329-9.575c0.062-1.561,0.164-4.15,0.526-4.949c0.643-0.602,3.107-1.506,4.593-2.051
		c2.737-1.004,5.839-2.143,8.661-4.197c2.793-2.033,4.813-4.616,6.595-6.894c0.985-1.26,2.617-3.347,3.397-3.769
		c0.865-0.074,3.201,0.584,4.763,1.024c2.85,0.804,6.08,1.715,9.655,1.715c3.575,0,6.805-0.911,9.655-1.715
		c1.563-0.44,3.89-1.098,4.764-1.024c0.781,0.422,2.412,2.508,3.396,3.768c1.782,2.279,3.8,4.862,6.595,6.895
		c2.822,2.054,5.924,3.192,8.661,4.195c1.485,0.546,3.949,1.449,4.593,2.051c0.362,0.797,0.463,3.388,0.526,4.949
		c0.114,2.922,0.245,6.235,1.329,9.575c1.053,3.245,2.867,5.934,4.469,8.308c0.94,1.392,2.511,3.72,2.572,4.524
		c-0.06,0.828-1.632,3.156-2.572,4.549c-1.602,2.373-3.416,5.061-4.47,8.308c-1.084,3.34-1.215,6.653-1.328,9.575
		c-0.061,1.563-0.163,4.151-0.526,4.948c-0.641,0.602-3.107,1.507-4.593,2.051c-2.737,1.004-5.839,2.143-8.66,4.197
		c-2.793,2.033-4.813,4.616-6.595,6.894c-0.985,1.26-2.615,3.346-3.397,3.769c-0.87,0.075-3.203-0.584-4.764-1.024
		c-2.85-0.803-6.079-1.714-9.655-1.714c-3.576,0-6.806,0.911-9.655,1.714c-1.563,0.44-3.9,1.093-4.763,1.024
		C379.859,349.22,378.227,347.134,377.243,345.875z M429.155,353.446c0.183-0.177,0.358-0.335,0.515-0.45
		c0.866-0.629,2.678-1.294,4.431-1.938c4.093-1.501,9.186-3.371,12.647-8.127c3.44-4.725,3.651-10.128,3.822-14.47
		c0.074-1.887,0.15-3.839,0.495-4.899c0.301-0.925,1.39-2.54,2.352-3.965c2.468-3.656,5.537-8.206,5.537-14.233
		c0-6.027-3.07-10.578-5.537-14.233c-0.962-1.425-2.05-3.04-2.351-3.964c-0.346-1.061-0.422-3.013-0.496-4.902
		c-0.17-4.341-0.383-9.743-3.821-14.468c-3.463-4.758-8.556-6.626-12.65-8.128c-1.753-0.644-3.567-1.308-4.431-1.938
		c-0.832-0.604-2.056-2.172-3.137-3.554c-2.702-3.457-6.065-7.759-11.726-9.596c-5.493-1.782-10.653-0.326-14.799,0.844
		c-1.854,0.524-3.772,1.063-4.949,1.063s-3.095-0.541-4.949-1.063c-4.15-1.171-9.313-2.625-14.799-0.844
		c-5.66,1.838-9.024,6.141-11.726,9.597c-1.082,1.382-2.307,2.95-3.138,3.554c-0.865,0.63-2.678,1.296-4.431,1.938
		c-4.094,1.501-9.187,3.371-12.65,8.128c-3.438,4.724-3.65,10.127-3.821,14.468c-0.073,1.887-0.15,3.841-0.496,4.902
		c-0.301,0.925-1.389,2.539-2.351,3.964c-2.468,3.656-5.537,8.205-5.537,14.232c0,6.028,3.07,10.577,5.537,14.233
		c0.962,1.425,2.051,3.04,2.351,3.964c0.346,1.061,0.422,3.014,0.496,4.903c0.17,4.341,0.383,9.743,3.821,14.468
		c3.463,4.757,8.556,6.626,12.65,8.128c1.753,0.644,3.565,1.308,4.431,1.938c0.157,0.114,0.333,0.273,0.514,0.448v8.762H46.23
		V134.524h419.54v227.684h-36.614V353.446z M41.152,117.187l-11.558-11.558h452.81l-11.558,11.558H41.152z M28.894,129.445v237.84
		l-11.558,11.558V117.887L28.894,129.445z M483.106,367.284V129.446l11.558-11.558v260.954L483.106,367.284z M29.594,391.101
		l11.558-11.558h319.809v11.558H29.594z M400.151,389.534c-3.038-2.209-7.154-2.209-10.195,0.002l-11.657,8.48v-31.198
		c0.818,0.109,1.627,0.165,2.422,0.165c3.442,0,6.638-0.901,9.388-1.677c1.854-0.524,3.774-1.063,4.95-1.063
		c1.177,0,3.095,0.541,4.949,1.063c3.385,0.955,7.448,2.1,11.811,1.52v31.19L400.151,389.534z M429.155,379.543h41.693
		l11.558,11.558h-53.25V379.543z"/>
	<path style="fill:#333333;" d="M418.157,328.462c12.735-12.736,12.735-33.459,0-46.196c-12.738-12.736-33.46-12.736-46.197,0
		c-12.735,12.736-12.735,33.459,0,46.196c6.369,6.368,14.734,9.552,23.098,9.552C403.423,338.015,411.788,334.831,418.157,328.462z
		 M384.221,294.525c2.989-2.989,6.913-4.482,10.839-4.482c3.925,0,7.851,1.494,10.839,4.482c5.978,5.976,5.978,15.702,0,21.678
		c-5.976,5.976-15.701,5.978-21.677,0C378.243,310.227,378.243,300.502,384.221,294.525z"/>
	<path style="fill:#333333;" d="M178.564,183.082h154.871c4.788,0,8.668-3.881,8.668-8.668s-3.88-8.668-8.668-8.668H178.564
		c-4.787,0-8.668,3.881-8.668,8.668S173.777,183.082,178.564,183.082z"/>
	<path style="fill:#333333;" d="M309.165,232.78h-106.33c-4.787,0-8.668,3.881-8.668,8.668s3.881,8.668,8.668,8.668h106.33
		c4.788,0,8.668-3.881,8.668-8.668S313.953,232.78,309.165,232.78z"/>
	<path style="fill:#333333;" d="M363.485,198.107H148.515c-4.787,0-8.668,3.881-8.668,8.668s3.881,8.668,8.668,8.668h214.971
		c4.788,0,8.668-3.881,8.668-8.668S368.274,198.107,363.485,198.107z"/>
	<path style="fill:#333333;" d="M216.704,312.51h-68.19c-4.787,0-8.668,3.881-8.668,8.668s3.881,8.668,8.668,8.668h68.19
		c4.787,0,8.668-3.881,8.668-8.668S221.491,312.51,216.704,312.51z"/>
</g>
<g>
</g>
<g>
</g>
<g>
</g>
<g>
</g>
<g>
</g>
<g>
</g>
<g>
</g>
<g>
</g>
<g>
</g>
<g>
</g>
<g>
</g>
<g>
</g>
<g>
</g>
<g>
</g>
<g>
</g>
</svg>
