<?xml version="1.0" encoding="iso-8859-1"?>
<!-- Generator: Adobe Illustrator 19.0.0, SVG Export Plug-In . SVG Version: 6.00 Build 0)  -->
<svg version="1.1" id="Capa_1" xmlns="http://www.w3.org/2000/svg" xmlns:xlink="http://www.w3.org/1999/xlink" x="0px" y="0px"
	 viewBox="0 0 387.2 387.2" style="enable-background:new 0 0 387.2 387.2;" xml:space="preserve">
<path style="fill:#73BF2D;" d="M193.498,330.4c179.2-57.6,0-324.8,0-324.8S14.298,272.8,193.498,330.4z"/>
<path style="fill:#20953D;" d="M193.498,5.6v324.8l0,0C372.698,272.8,193.498,5.6,193.498,5.6L193.498,5.6z"/>
<path style="fill:#182D00;" d="M187.898,334.4v47.2c0,3.2,2.4,5.6,5.6,5.6s5.6-2.4,5.6-5.6v-47.2c62-21.6,88.4-72.4,76.8-146.8
	c-7.2-46.4-28-94.4-44-126.4c-9.2-18-17.6-33.2-23.2-42.4C197.498,0,197.498,0,193.898,0c-2,0-3.6,0.8-4.8,2.4
	c-4.4,6.8-108.4,163.6-73.2,264.4C126.698,298.8,151.098,321.6,187.898,334.4z M260.698,262.8c-9.6,27.6-30.4,47.6-61.6,59.2V25.6
	C225.098,68.8,287.498,186,260.698,262.8z M187.898,25.6V322c-31.2-12-52-31.6-61.6-59.2C99.498,186,161.898,68.8,187.898,25.6z"/>
<g>
</g>
<g>
</g>
<g>
</g>
<g>
</g>
<g>
</g>
<g>
</g>
<g>
</g>
<g>
</g>
<g>
</g>
<g>
</g>
<g>
</g>
<g>
</g>
<g>
</g>
<g>
</g>
<g>
</g>
</svg>
